<svg width="20" height="19" viewBox="0 0 20 19" fill="none" xmlns="http://www.w3.org/2000/svg">
<path d="M8.58039 1.41539L9.50406 0.491721C9.89516 0.100619 10.5276 0.100619 10.9145 0.491721L19.0028 8.57587C19.3939 8.96698 19.3939 9.5994 19.0028 9.98634L10.9145 18.0746C10.5234 18.4658 9.891 18.4658 9.50406 18.0746L8.58039 17.151C8.18513 16.7557 8.19345 16.1108 8.59703 15.7239L13.6106 10.9474H1.6529C1.09953 10.9474 0.654343 10.5023 0.654343 9.94889V8.61748C0.654343 8.06411 1.09953 7.61892 1.6529 7.61892H13.6106L8.59703 2.84249C8.18929 2.45555 8.18097 1.81065 8.58039 1.41539Z" fill="black"/>
</svg>
