<svg width="24" height="27" viewBox="0 0 24 27" fill="none" xmlns="http://www.w3.org/2000/svg">
<path d="M13.2954 13.5C13.2954 12.7003 13.8573 12.0521 14.5505 12.0521H20.8257C21.5189 12.0521 22.0807 12.7003 22.0807 13.5V23.6351C22.0807 24.4347 21.5189 25.0829 20.8257 25.0829H14.5505C13.8573 25.0829 13.2954 24.4347 13.2954 23.6351V13.5Z" stroke="#4F4F4F" stroke-width="2.75456" stroke-linecap="round"/>
<path d="M2 3.36498C2 2.56535 2.56191 1.91711 3.25505 1.91711H8.27524C8.96837 1.91711 9.53028 2.56535 9.53028 3.36498V13.5C9.53028 14.2997 8.96837 14.9479 8.27524 14.9479H3.25505C2.56191 14.9479 2 14.2997 2 13.5V3.36498Z" stroke="#4F4F4F" stroke-width="2.75456" stroke-linecap="round"/>
<path d="M2 20.7395C2 19.9398 2.56191 19.2916 3.25505 19.2916H8.27524C8.96837 19.2916 9.53028 19.9398 9.53028 20.7395V23.6352C9.53028 24.4349 8.96837 25.0831 8.27524 25.0831H3.25505C2.56191 25.0831 2 24.4349 2 23.6352V20.7395Z" stroke="#4F4F4F" stroke-width="2.75456" stroke-linecap="round"/>
<path d="M13.2954 3.36498C13.2954 2.56535 13.8573 1.91711 14.5505 1.91711H20.8257C21.5189 1.91711 22.0807 2.56535 22.0807 3.36498V6.26071C22.0807 7.06034 21.5189 7.70858 20.8257 7.70858H14.5505C13.8573 7.70858 13.2954 7.06034 13.2954 6.26071V3.36498Z" stroke="#4F4F4F" stroke-width="2.75456" stroke-linecap="round"/>
</svg>
