<svg width="25" height="25" viewBox="0 0 25 25" fill="none" xmlns="http://www.w3.org/2000/svg">
<path d="M12.1094 0.390625C5.42202 0.390625 0 5.8146 0 12.5C0 19.1893 5.42202 24.6094 12.1094 24.6094C18.7967 24.6094 24.2188 19.1893 24.2188 12.5C24.2188 5.8146 18.7967 0.390625 12.1094 0.390625ZM12.1094 5.76172C13.242 5.76172 14.1602 6.67988 14.1602 7.8125C14.1602 8.94512 13.242 9.86328 12.1094 9.86328C10.9768 9.86328 10.0586 8.94512 10.0586 7.8125C10.0586 6.67988 10.9768 5.76172 12.1094 5.76172ZM14.8438 18.1641C14.8438 18.4876 14.5814 18.75 14.2578 18.75H9.96094C9.63735 18.75 9.375 18.4876 9.375 18.1641V16.9922C9.375 16.6686 9.63735 16.4062 9.96094 16.4062H10.5469V13.2812H9.96094C9.63735 13.2812 9.375 13.0189 9.375 12.6953V11.5234C9.375 11.1999 9.63735 10.9375 9.96094 10.9375H13.0859C13.4095 10.9375 13.6719 11.1999 13.6719 11.5234V16.4062H14.2578C14.5814 16.4062 14.8438 16.6686 14.8438 16.9922V18.1641Z" fill="#4F4F4F"/>
</svg>
