<svg width="25" height="25" viewBox="0 0 25 25" fill="none" xmlns="http://www.w3.org/2000/svg">
<path d="M21.1043 21.3166L21.1044 21.3165C21.5947 20.8263 21.5947 20.0285 21.1044 19.5382C20.8669 19.3008 20.551 19.1698 20.2151 19.1698C19.8793 19.1698 19.5634 19.3008 19.3258 19.5384C18.8357 20.0285 18.8357 20.8263 19.326 21.3165C19.8164 21.8067 20.6141 21.8067 21.1043 21.3166ZM19.717 20.9254C19.584 20.7925 19.5108 20.6156 19.5108 20.4273C19.5108 20.2392 19.584 20.0622 19.717 19.9292C19.8502 19.7962 20.0271 19.7229 20.2153 19.7229C20.4034 19.7229 20.5802 19.7962 20.7133 19.9292C20.9879 20.2039 20.9879 20.6507 20.7132 20.9254C20.4385 21.2002 19.9918 21.2 19.717 20.9254Z" fill="#4F4F4F"/>
<path d="M23.2988 5.65122C23.2991 5.65086 23.2994 5.65062 23.2997 5.65032C23.3003 5.64973 23.3008 5.64907 23.3015 5.64847L23.3773 5.57265L23.3754 5.57074C24.5025 4.36129 24.4777 2.46064 23.2995 1.28248C22.7162 0.699101 21.9406 0.377808 21.1156 0.377808C20.3274 0.377808 19.5847 0.671707 19.0112 1.20666L19.0094 1.20481L18.9335 1.28066C18.9329 1.28129 18.9322 1.28183 18.9316 1.28246C18.9314 1.28275 18.9311 1.28308 18.9308 1.28341L0.78616 19.428L0.793225 19.435C0.691802 19.5005 0.618324 19.6079 0.600681 19.7368L0.00395785 24.0954C-0.0142085 24.2282 0.0308149 24.3618 0.125586 24.4567C0.206502 24.5375 0.315748 24.5821 0.428644 24.5821C0.447953 24.5821 0.467387 24.5808 0.486821 24.5782L4.84526 23.9813C4.97424 23.9637 5.08164 23.8901 5.14705 23.7887L5.1541 23.7958L23.2988 5.65122ZM21.1156 1.23506C21.7116 1.23506 22.2719 1.46716 22.6933 1.88861C23.4597 2.6549 23.551 3.84463 22.9673 4.71181L19.8699 1.61445C20.235 1.36769 20.6652 1.23506 21.1156 1.23506ZM19.0094 2.41711L22.1649 5.57264L5.1541 22.5835L3.96695 21.3964L17.6217 7.74185L16.8042 6.92454L3.14969 20.5792L1.99849 19.428L19.0094 2.41711ZM0.929852 23.6523L1.42127 20.063L4.51899 23.1607L0.929852 23.6523Z" fill="#4F4F4F"/>
<path d="M6.85411 11.1843L7.63625 10.4022L1.37723 4.14312L3.93116 1.58912L5.14213 2.8002L4.26353 3.67867L4.95716 4.37226L5.83576 3.49384L6.54178 4.19981L5.66318 5.07835L6.35682 5.77187L7.23549 4.89345L7.94145 5.59954L6.64163 6.89906L7.33545 7.5927L8.63509 6.29306L9.49592 7.15384L8.61732 8.03256L9.31096 8.72608L10.1896 7.84748L10.1902 7.84813L10.9723 7.06598L4.32217 0.415937C4.10619 0.199896 3.75608 0.199896 3.54009 0.415937L0.204033 3.75204C-0.0120215 3.96804 -0.0120215 4.3182 0.204033 4.53419L6.85411 11.1843Z" fill="#4F4F4F"/>
<path d="M24.3732 20.4646C24.3632 20.4545 24.3529 20.445 24.3423 20.4359L17.3832 13.4768L15.3013 15.5587L15.9935 16.2509L17.2932 14.9512L23.1989 20.8567L20.6449 23.4107L14.047 16.8129L13.2649 17.5952L20.2538 24.5839C20.4697 24.8 20.8198 24.8 21.0359 24.5839L24.3721 21.2479C24.3724 21.2475 24.3728 21.2472 24.3732 21.2467C24.5893 21.0308 24.5893 20.6806 24.3732 20.4646Z" fill="#4F4F4F"/>
</svg>
